<svg id="Capa_1" enable-background="new 0 0 511.929 511.929" height="512" viewBox="0 0 511.929 511.929" width="512" xmlns="http://www.w3.org/2000/svg"><path d="m345.031 175.002c-2.762-29.295-11.169-57.778-24.758-83.877l-7.968-15.304c-3.83-7.356-12.744-10.431-20.294-7.001l-.289.131c-22.661 10.292-48.714 10.04-71.171-.69-7.588-3.626-16.685-.586-20.569 6.874l-8.325 15.988c-13.589 26.1-21.997 54.583-24.76 83.879l-1.809 19.187c15.993 38.761 64.998 64.197 90.876 64.197s74.883-25.436 90.876-64.197z" fill="#fff1dd"/><path d="m345.032 175.002c-2.762-29.295-11.169-57.778-24.758-83.876l-7.968-15.302c-3.83-7.356-12.744-10.432-20.295-7.003l-.289.131c-3.44 1.562-6.958 2.881-10.53 3.958 13.05 25.61 21.141 53.464 23.841 82.092 1.545 16.383-3.8 32.708-14.869 44.884-21.742 23.913-54.601 38.5-74.198 38.5-4.786 0-10.362-.87-16.375-2.533 19.377 14.275 41.63 22.533 56.375 22.533 25.878 0 74.883-25.436 90.876-64.197z" fill="#ffe4c1"/><path d="m458.547 504.429v-138.713c0-36.46-27.147-67.216-63.325-71.745l-78.773-9.86c-4.533-.567-7.935-4.421-7.935-8.99v-36.555c-18.423 12.602-38.767 19.818-52.55 19.818s-34.128-7.216-52.55-19.818v36.555c0 4.569-3.401 8.422-7.935 8.99l-78.773 9.86c-36.178 4.528-63.325 35.284-63.325 71.745v138.712h405.166z" fill="#fff1dd"/><path d="m396.994 294.215c13.369 13.183 21.554 31.482 21.554 51.501v114.135c0 13.574-11.004 24.578-24.578 24.578h-340.589v20h405.166v-138.713c0-35.863-26.264-66.206-61.553-71.501z" fill="#ffe4c1"/><path d="m462.319 194.16h-33.561c-3.528 0-6.682-2.199-7.902-5.509l-27.319-74.087-52.845-52.844 1.076 2.917 6.265 12.031c14.414 27.684 21.418 53.016 25.035 72.849l19.979 54.181c4.821 13.075 17.281 21.76 31.216 21.76h38.057c8.643 0 15.649-7.006 15.649-15.649s-7.007-15.649-15.65-15.649z" fill="#b7e445"/><path d="m49.609 194.16h33.561c3.528 0 6.682-2.199 7.902-5.509l27.319-74.087 52.844-52.844-1.075 2.917-6.265 12.031c-14.414 27.684-21.418 53.016-25.035 72.849l-19.979 54.181c-4.821 13.075-17.281 21.76-31.216 21.76h-38.056c-8.643 0-15.649-7.006-15.649-15.649s7.006-15.649 15.649-15.649z" fill="#b7e445"/><path d="m475.296 81.872-.332-.332c-6.02-6.019-15.78-6.019-21.8.001l-10.438 10.438c-7.597 7.597-19.915 7.597-27.513 0l-72.899-72.899c-13.426-13.426-34.052-15.245-49.441-5.478-11.157-3.481-23.678-5.436-36.909-5.436s-25.752 1.955-36.909 5.436c-15.389-9.767-36.015-7.948-49.441 5.478l-72.899 72.899c-7.597 7.597-19.915 7.597-27.513 0l-10.438-10.438c-6.019-6.019-15.778-6.02-21.798-.001l-.333.333c-6.02 6.019-6.021 15.779-.001 21.798l17.368 17.369c15.993 15.993 41.923 15.994 57.916.001l59.361-59.36c.177.13.129.095.307.225l-7.687 14.763c-28.596 54.922-28.045 100.615-29.684 112.397l-5.243 54.915c-.578 6.053-5.95 10.495-12.004 9.924l-41.458-3.909c-8.607-.812-15.649 5.597-15.649 14.242s7.042 16.382 15.649 17.194l40.311 3.801c22.272 2.1 42.028-14.247 44.128-36.519 1.93-20.465 4.084-43.319 5.141-54.524 1.846-10.949.468-52.995 26.569-103.066l8.325-15.988c3.884-7.459 12.981-10.499 20.569-6.874 22.458 10.73 48.51 10.983 71.172.69l.288-.131c7.551-3.429 16.465-.354 20.295 7.001 0 0 9.666 18.619 10.485 20.292 23.472 47.877 22.273 87.535 24.051 98.075 1.057 11.206 3.211 34.059 5.141 54.524 2.1 22.272 21.857 38.619 44.128 36.519l40.311-3.801c8.607-.812 15.649-8.549 15.649-17.194s-7.042-15.054-15.649-14.243l-41.458 3.909c-6.054.571-11.426-3.87-12.004-9.924l-5.243-54.915c-1.639-11.782-1.088-57.475-29.684-112.397l-7.346-14.107c.282-.207.206-.151.488-.358l58.838 58.837c15.993 15.993 41.924 15.993 57.917-.001l17.368-17.369c6.019-6.018 6.018-15.778-.002-21.797z" fill="#c8ea73"/><path d="m377.206 379.181 9.821 32.631c9.08 30.169 9.337 62.306.742 92.617h-263.609c-8.595-30.311-8.338-62.448.742-92.617l9.821-32.631 2.196.153c45.366 3.164 87.873 23.31 119.045 56.421l1.009-1.055c31.427-32.855 74.081-52.662 119.46-55.472z" fill="#8993da"/><path d="m387.027 411.812-9.821-32.631-.773.048c-10.772.667-21.39 2.292-31.742 4.822l2.336 7.76c2.773 9.213 3.921 21.435 4.179 33.97.663 32.222-25.415 58.647-57.644 58.647h-173.755c1.032 6.727 2.483 13.407 4.352 20h263.609c8.596-30.31 8.339-62.447-.741-92.616z" fill="#707dd3"/><path d="m292.994 349.328 61.606-60.441-38.151-4.775-7.708 5.02c-9.531 6.207-19.883 10.556-30.566 13.077l11.652 49.968c1.082-.905 2.144-1.845 3.167-2.849z" fill="#f6e738"/><path d="m202.778 288.909-7.298-4.797-38.706 4.775s63.691 62.385 64.772 63.29l11.678-50.078c-10.649-2.569-20.961-6.956-30.446-13.19z" fill="#f6e738"/><path d="m289.828 352.177-11.652-49.968c-14.779 3.489-30.189 3.451-44.952-.11l-11.678 50.078c19.726 16.509 48.555 16.509 68.282 0z" fill="#f9f48e"/><path d="m257.108 187.01c11.444 0 20.755-9.312 20.755-20.756v-26.117c0-3.173 2.582-5.755 5.756-5.755h27.555c4.142 0 7.5-3.357 7.5-7.5s-3.358-7.5-7.5-7.5h-27.554c-11.445 0-20.756 9.311-20.756 20.755v26.117c0 3.174-2.582 5.756-5.755 5.756-4.142 0-7.5 3.357-7.5 7.5s3.357 7.5 7.499 7.5z"/><path d="m200.754 134.382h40.811c4.142 0 7.5-3.357 7.5-7.5s-3.358-7.5-7.5-7.5h-40.811c-4.142 0-7.5 3.357-7.5 7.5 0 4.142 3.358 7.5 7.5 7.5z"/><path d="m275.272 208.063h-38.616c-4.142 0-7.5 3.357-7.5 7.5s3.358 7.5 7.5 7.5h38.616c4.142 0 7.5-3.357 7.5-7.5s-3.358-7.5-7.5-7.5z"/><path d="m83.171 186.66h-33.562c-10.141 0-18.779 6.554-21.902 15.649h-9.867c-4.142 0-7.5 3.357-7.5 7.5s3.358 7.5 7.5 7.5h9.867c3.123 9.095 11.761 15.649 21.902 15.649h38.057c15.984 0 30.53-9.475 37.1-23.866l-3.263 34.174c-.184 1.93-1.899 3.363-3.833 3.17l-41.458-3.909c-10.289-.98-18.856 4.949-22.233 13.259l-15.921-2.35c-4.101-.603-7.91 2.228-8.515 6.324-.605 4.099 2.227 7.91 6.324 8.516l17.45 2.576c2.793 9.523 11.368 17.091 21.486 18.045l22.733 2.144c-30.429 11.493-51.655 40.925-51.655 74.675v73.712c0 4.143 3.358 7.5 7.5 7.5s7.5-3.357 7.5-7.5v-73.712c0-32.608 24.4-60.253 56.756-64.303l36.534-4.573c64.348 63.132 59.716 58.71 62.56 61.087 23.981 20.068 59.183 18.659 81.515-3.247l17.331-17.003c2.957-2.9 3.002-7.649.101-10.606-2.901-2.955-7.648-3.003-10.606-.101l-10.923 10.716-7.033-30.157c9.089-2.842 17.713-6.902 25.717-12.114l5.407-3.521 20.027 2.507-7.803 7.656c-2.957 2.9-3.002 7.649-.101 10.606 2.9 2.954 7.647 3.004 10.606.101l16.294-15.986 37.027 4.634c32.356 4.05 56.756 31.694 56.756 64.303v131.212h-53.646c6.44-28.859 5.369-58.832-3.192-87.278-10.508-34.913-9.858-32.799-10.034-33.243.715-4.869 2.966-9.371 6.497-12.903 2.929-2.929 2.928-7.678-.001-10.606-2.929-2.93-7.678-2.929-10.606.001-5.353 5.354-8.924 12.056-10.387 19.339-42.929 4.091-82.887 22.651-113.708 52.813-30.982-30.319-71.228-48.93-114.492-52.873-1.465-7.279-5.035-13.976-10.385-19.327-2.929-2.93-7.678-2.929-10.607-.001-2.929 2.929-2.929 7.678 0 10.606 3.979 3.979 6.331 9.188 6.695 14.768l-9.458 31.426c-8.562 28.446-9.633 58.419-3.192 87.278h-53.649v-22.5c0-4.143-3.358-7.5-7.5-7.5s-7.5 3.357-7.5 7.5v30c0 4.143 3.358 7.5 7.5 7.5h405.166c4.142 0 7.5-3.357 7.5-7.5v-138.71c0-33.751-21.226-63.183-51.655-74.675l22.733-2.144c10.118-.954 18.693-8.522 21.486-18.045l17.45-2.576c4.098-.605 6.929-4.417 6.324-8.516-.605-4.098-4.419-6.932-8.515-6.324l-15.921 2.35c-3.398-8.362-11.984-14.222-22.233-13.259l-41.458 3.909c-1.925.177-3.649-1.239-3.833-3.17l-3.263-34.175c6.57 14.392 21.116 23.867 37.1 23.867h38.057c10.141 0 18.779-6.554 21.902-15.649h9.867c4.142 0 7.5-3.357 7.5-7.5s-3.358-7.5-7.5-7.5h-9.867c-3.123-9.095-11.761-15.649-21.902-15.649h-33.562c-.385 0-.732-.242-.866-.604l-18.26-49.52c17.392 7.571 38.868 4.54 53.6-10.194l17.369-17.368c7.179-7.179 8.516-17.8 4.419-26.219l8.02-8.02c2.929-2.93 2.929-7.678 0-10.607-2.929-2.928-7.678-2.928-10.606 0l-7.918 7.918c-8.613-4.406-19.454-3.008-26.654 4.193l-10.438 10.438c-4.669 4.67-12.233 4.675-16.906.001-2.93-2.93-7.678-2.929-10.607-.001-2.929 2.929-2.929 7.678 0 10.606 10.532 10.534 27.584 10.537 38.119 0l10.438-10.438c3.085-3.087 8.106-3.087 11.189-.005l.317.317c3.217 3.249 3.014 8.216.02 11.211l-17.369 17.368c-13.043 13.046-34.266 13.045-47.31 0-39.192-39.191-58.888-58.923-59.374-59.324l-7.44-14.288c-5.983-11.49-20.129-15.506-30.922-9.733l-14.072 7.327c-3.674 1.913-5.102 6.441-3.189 10.116 1.913 3.674 6.44 5.102 10.116 3.188l14.089-7.335c3.878-2.019 8.653-.517 10.674 3.364l16.183 31.079c13.892 26.682 20.682 50.881 24.215 70.05.132 1.48 2.16 9.266 3.969 32.214.151 1.916 5.92 62.196 5.93 62.297.969 10.153 10.014 17.631 20.174 16.678l41.458-3.909c4.202-.393 7.417 2.536 7.444 6.722-.025 4.975-4.267 9.349-8.852 9.781l-40.312 3.802c-18.162 1.712-34.244-11.594-35.957-29.757l-5.128-54.389c-.126-1.638-.11.783-.834-8.412-1.325-16.828-4.082-51.845-23.961-92.393-1.734-3.54-2.022-4.044-10.568-20.457-5.67-10.889-18.869-15.442-30.048-10.366-21.943 9.893-45.325 8.963-65.125-.498-11.295-5.396-24.672-.927-30.455 10.177l-8.323 15.985c-26.654 51.133-25.654 95.113-27.299 105.201-.083.46.295-3.402-5.226 55.151-1.712 18.151-17.789 31.473-35.957 29.757l-40.312-3.802c-4.71-.444-8.842-4.979-8.853-9.709.023-4.414 3.379-7.176 7.445-6.794l41.457 3.909c10.161.959 19.206-6.524 20.174-16.678l5.229-54.761c1.722-12.803 1.058-56.354 28.885-109.8l16.183-31.079c2.082-3.999 6.981-5.34 10.69-3.356l14.073 7.327c3.674 1.912 8.203.486 10.116-3.188 1.913-3.675.485-8.203-3.189-10.116l-14.088-7.335c-11.23-5.848-25.056-1.494-30.906 9.741-7.938 15.245-7.352 14.151-7.454 14.252-50.363 50.362 61.244-61.243-59.36 59.359-13.042 13.043-34.266 13.045-47.31 0l-17.37-17.368c-3.088-3.087-3.095-8.096-.002-11.188l.336-.336c3.085-3.084 8.106-3.085 11.192.001l10.438 10.438c10.533 10.533 27.584 10.535 38.119 0l72.899-72.899c10.602-10.602 27.475-12.474 40.119-4.449 1.862 1.183 4.149 1.486 6.253.827 21.8-6.801 47.529-6.808 69.35 0 2.105.658 4.392.355 6.253-.827 12.644-8.023 29.516-6.155 40.119 4.449l46.861 46.861c2.929 2.928 7.678 2.928 10.606 0 2.929-2.93 2.929-7.678 0-10.607l-46.861-46.861c-14.685-14.686-37.596-17.929-55.71-8.284-22.383-6.312-48.594-6.568-71.883 0-18.114-9.646-41.025-6.402-55.712 8.284l-72.9 72.9c-4.669 4.67-12.233 4.673-16.906-.001l-10.438-10.438c-7.201-7.201-18.042-8.597-26.654-4.192l-7.918-7.918c-2.929-2.928-7.678-2.928-10.606 0-2.929 2.93-2.929 7.678 0 10.607l8.02 8.021c-4.092 8.408-2.77 19.031 4.419 26.219l17.369 17.369c14.718 14.718 36.196 17.768 53.6 10.193l-18.26 49.52c-.134.362-.481.604-.866.604zm46.763 310.269c-6.714-27.349-5.99-55.908 2.15-82.956l8.082-26.854c42.177 3.858 81.235 22.864 110.338 53.777 2.956 3.141 7.926 3.132 10.881.043l1.009-1.054c29.023-30.343 67.694-48.963 109.367-52.777l8.085 26.864c8.14 27.049 8.865 55.607 2.151 82.956h-252.063zm257.136-378.225 26.749 72.541c2.296 6.229 8.3 10.414 14.939 10.414h33.562c4.494 0 8.149 3.656 8.149 8.149s-3.656 8.149-8.149 8.149h-38.057c-10.745 0-20.462-6.773-24.18-16.855l-19.793-53.677c-2.655-14.279-7.025-31.341-14.476-49.979zm-213.903 175.76 20.503-2.566 4.989 3.279c7.971 5.239 16.566 9.331 25.631 12.211l-7.066 30.3zm82.797-28.578c12.161 0 28.731-4.952 45.05-13.935v23.171c0 3.101.864 6.026 2.374 8.531-20.699 12.995-45.484 16.684-68.406 11.155-.002 0-.005-.001-.007-.002-9.406-2.27-18.296-6.008-26.454-11.122 1.522-2.511 2.393-5.448 2.393-8.562v-23.171c16.319 8.982 32.889 13.935 45.05 13.935zm-26.01 83.26 8.921-38.255c11.109 1.832 22.523 1.857 33.642.076l8.903 38.179c-15.51 10.594-35.955 10.594-51.466 0zm132.262-66.865c-3.793-.475-30.811-3.856-44.835-5.612-.779-.097-1.366-.763-1.366-1.548v-32.685c9.467-6.867 18.318-15.094 25.534-24.478l2.966 31.458c1.263 13.408 7.958 25.02 17.701 32.865zm-163.907-187.694 8.324-15.988c2.028-3.896 6.72-5.465 10.684-3.569 23.779 11.36 51.795 12.362 77.794.62 3.92-1.783 8.552-.185 10.541 3.637 7.23 13.884 8.579 16.403 10.403 20.13 18.62 37.979 21.225 71.067 22.477 86.97.207 2.63.384 4.879.597 6.75-7.619 17.019-22.316 31.279-38.066 41.372-15.527 9.949-33.229 16.378-45.099 16.378s-29.572-6.429-45.099-16.378c-15.768-10.104-30.453-24.366-38.066-41.372 1.557-13.68 1.543-52.573 25.51-98.55zm-30.895 154.83 2.966-31.458c7.216 9.384 16.067 17.611 25.534 24.478v32.685c0 .785-.587 1.451-1.366 1.548-10.135 1.269-32.907 4.119-44.838 5.612 9.744-7.846 16.44-19.458 17.704-32.865zm-69.304-58.171 26.749-72.541 21.257-21.257c-7.451 18.638-11.821 35.7-14.476 49.979l-19.793 53.677c-3.718 10.082-13.435 16.855-24.18 16.855h-38.058c-4.494 0-8.149-3.656-8.149-8.149s3.656-8.149 8.149-8.149h33.562c6.638-.001 12.642-4.187 14.939-10.415z"/></svg>