<?xml version="1.0" encoding="iso-8859-1"?>
<!-- Generator: Adobe Illustrator 19.0.0, SVG Export Plug-In . SVG Version: 6.00 Build 0)  -->
<svg version="1.1" id="Layer_1" xmlns="http://www.w3.org/2000/svg" xmlns:xlink="http://www.w3.org/1999/xlink" x="0px" y="0px"
	 viewBox="0 0 511.998 511.998" style="enable-background:new 0 0 511.998 511.998;" xml:space="preserve">
<path style="fill:#808080;" d="M170.534,161.509c0,6.571,5.345,11.918,11.916,11.918c6.573,0,11.92-5.347,11.92-11.918
	c0-0.51-0.033-1.017-0.099-1.517h-23.64C170.565,160.492,170.534,160.997,170.534,161.509z"/>
<g>
	<path style="fill:#FFAA2A;" d="M115.544,154.31c-1.081,0.124-2.475,0.418-2.983,1.11c-1.947,2.651,2.107,23.942,2.107,23.942
		c4.243,22.308,11.114,32.404,14.637,32.447c4.981,0.062,7.625-0.278,9.322-0.923c-5.347-17.246-8.49-35.118-10.316-51.087
		C125.86,156.626,120.304,153.754,115.544,154.31z"/>
	<path style="fill:#FFAA2A;" d="M177.469,262.695c9.417,17.599,18.31,34.223,50.695,34.223c32.384,0,41.278-16.623,50.694-34.223
		c2.78-5.196,5.656-10.57,9.13-15.455c19.612-27.585,26.678-68.882,29.224-94.869c-2.624,0.212-5.307,0.41-8.019,0.603
		c0.091,0.406,0.147,0.824,0.147,1.257c0,3.181-2.58,5.761-5.761,5.761h-6.316c0.032,0.505,0.055,1.009,0.055,1.517
		c0,12.925-10.518,23.44-23.447,23.44c-12.922,0-23.435-10.515-23.435-23.44c0-0.508,0.022-1.014,0.054-1.517h-4.337v30.385
		c8.67,2.507,15.042,10.478,15.042,19.943c0,3.182-2.58,5.761-5.761,5.761c-3.182,0-5.761-2.579-5.761-5.761
		c0-3.197-1.629-6.017-4.101-7.683c-0.929,1.938-2.89,3.285-5.18,3.285c-3.182,0-5.761-2.58-5.761-5.761v-40.168h-12.938v40.168
		c0,3.181-2.58,5.761-5.761,5.761c-2.294,0-4.258-1.351-5.186-3.293c-2.469,1.669-4.094,4.493-4.094,7.692
		c0,3.182-2.58,5.761-5.761,5.761c-3.182,0-5.761-2.579-5.761-5.761c0-9.467,6.368-17.44,15.04-19.944v-30.384h-4.339
		c0.032,0.505,0.055,1.009,0.055,1.517c0,12.925-10.516,23.44-23.442,23.44c-12.924,0-23.437-10.515-23.437-23.44
		c0-0.508,0.021-1.015,0.054-1.517h-6.315c-3.181,0-5.761-2.58-5.761-5.761c0-0.433,0.056-0.851,0.147-1.257
		c-2.713-0.192-5.397-0.392-8.02-0.603c2.545,25.987,9.611,67.284,29.224,94.869C171.814,252.125,174.69,257.498,177.469,262.695z
		 M228.166,221.29c20.484,0,35.932,8.533,35.932,19.85c0,11.317-15.448,19.85-35.933,19.85c-20.486,0-35.934-8.533-35.934-19.85
		C192.231,229.823,207.68,221.29,228.166,221.29z"/>
</g>
<rect x="39.074" y="470.681" style="fill:#333333;" width="73.842" height="29.794"/>
<path style="fill:#FFAA2A;" d="M228.165,308.439L228.165,308.439c-0.002,0-0.003,0-0.003,0c-28.207,0-42.069-11.041-51.384-24.262
	l-0.007,4.822c0.111,5.995-1.6,14.947-6.854,23.074c1.767,12.548,25.185,25.895,58.248,25.895s56.478-13.344,58.248-25.894
	c-5.255-8.13-6.965-17.081-6.854-23.076l-0.007-4.822C270.234,297.397,256.375,308.439,228.165,308.439z"/>
<path style="fill:#C43333;" d="M306.613,356.984c7.146-8.664,14.404-16.638,21.744-23.903c-4.316-1.021-8.717-1.951-13.188-2.757
	c-8.373-1.508-14.899-4.633-19.953-8.595c-8.423,16.218-34.862,27.76-67.05,27.76c-32.193,0-58.622-11.547-67.042-27.77
	c-5.057,3.966-11.585,7.095-19.962,8.604c-19.718,3.551-56.229,12.741-79.821,34.4h239.063
	C302.414,362.151,304.482,359.568,306.613,356.984z"/>
<g>
	<path style="fill:#808080;" d="M455.018,337.812c-15.289-2.349-31.185,0.081-45.195,4.102l7.105,11.639
		C429.471,346.734,443.772,341.427,455.018,337.812z"/>
	<path style="fill:#808080;" d="M421.136,292.84c-16.816,2.748-32.618,9.495-47.107,18.442l11.673,8.442
		C397.485,309.134,410.64,299.741,421.136,292.84z"/>
</g>
<path style="fill:#FFAA2A;" d="M340.781,154.31c-4.757-0.543-10.298,2.3-12.761,5.461c-1.825,15.979-4.972,33.867-10.323,51.126
	c1.701,0.639,4.348,0.976,9.324,0.911c3.524-0.044,10.396-10.139,14.638-32.447c0,0,4.057-21.29,2.108-23.941
	C343.26,154.728,341.864,154.435,340.781,154.31z"/>
<path style="fill:#C43333;" d="M39.074,423.464v35.696h73.894c-0.247-10.05-1.513-24.156-5.197-35.696H39.074z"/>
<g>
	<path style="fill:#333333;" d="M310.607,108.991c-0.101-9.267-0.585-27.718-2.696-46.208c-4.119-36.09-11.948-49.858-17.901-50.708
		c-24.897-3.548-59.246,10.908-59.589,11.054l-0.005-0.008c-1.391,0.592-3.007,0.649-4.51,0.008
		c-0.463-0.197-34.787-14.59-59.589-11.053c-5.959,0.848-13.795,14.641-17.91,50.799c-2.104,18.475-2.585,36.867-2.687,46.115
		c24.639-1.782,52.933-2.736,82.443-2.736C257.673,106.254,285.968,107.208,310.607,108.991z"/>
	<path style="fill:#333333;" d="M228.164,144.09c39.032,0,76.468-1.71,105.409-4.817c27.756-2.978,39.658-6.328,44.618-8.339
		c-4.96-2.012-16.862-5.362-44.618-8.342c-28.942-3.105-66.378-4.816-105.409-4.816s-76.466,1.71-105.408,4.816
		c-27.757,2.979-39.659,6.33-44.619,8.342c4.96,2.012,16.862,5.361,44.619,8.339C151.696,142.379,189.131,144.09,228.164,144.09z"/>
</g>
<path style="fill:#808080;" d="M261.959,161.509c0,6.571,5.345,11.918,11.913,11.918c6.575,0,11.925-5.347,11.925-11.918
	c0-0.509-0.033-1.017-0.099-1.517h-23.642C261.992,160.492,261.959,160.997,261.959,161.509z"/>
<g>
	<path style="fill:#333333;" d="M228.164,249.468c15.858,0,24.411-5.912,24.411-8.328c0-1.323-2.581-3.69-7.505-5.565v1.035
		c0,3.181-2.58,5.761-5.761,5.761c-3.182,0-5.761-2.58-5.761-5.761v-3.554c-1.69-0.154-3.481-0.243-5.383-0.243
		c-1.903,0-3.696,0.089-5.388,0.244v3.553c0,3.181-2.579,5.761-5.761,5.761c-3.181,0-5.761-2.58-5.761-5.761v-1.035
		c-4.923,1.875-7.505,4.242-7.505,5.565C203.753,243.556,212.307,249.468,228.164,249.468z"/>
	<path style="fill:#333333;" d="M417.254,411.943v-3.988c-1.676,1.222-3.344,2.566-5.003,3.988H417.254z"/>
</g>
<path style="fill:#C43333;" d="M343.412,456.133v3.028h73.844v-35.696h-16.832C383.72,439.209,362.03,449.559,343.412,456.133z"/>
<path style="fill:#808080;" d="M396.963,385.131c-2.209,0.711-4.631,0.031-6.142-1.728c-1.513-1.759-1.822-4.253-0.785-6.329
	c3.246-6.494,9.432-12.36,17.037-17.549l-8.506-13.932c-18.293,6.686-31.266,14.811-31.545,14.99
	c-2.138,1.36-4.917,1.164-6.842-0.489c-1.925-1.652-2.544-4.367-1.524-6.688c3.803-8.664,10.541-17.365,18.575-25.586l-13.439-9.719
	c-18.914,13.54-35.229,30.4-48.144,46.036c-24.938,30.191-41.908,61.194-48.048,73.119l36.22,17.474
	c10.2-1.801,63.812-12.553,92.942-43.88c7.73-8.313,15.898-14.34,23.978-18.687l-4.318-11.582
	C405.328,382.482,397.18,385.06,396.963,385.131z M316.907,394.903c-1.309,0-2.622-0.444-3.703-1.35
	c-2.436-2.046-2.753-5.68-0.705-8.117l30.27-36.034c2.045-2.437,5.681-2.753,8.116-0.706c2.436,2.046,2.753,5.68,0.705,8.117
	l-30.27,36.034C320.183,394.204,318.549,394.903,316.907,394.903z M324.298,403.113c-1.825-2.606-1.19-6.198,1.415-8.023
	l36.612-25.633c2.606-1.826,6.198-1.191,8.023,1.416c1.825,2.606,1.191,6.197-1.415,8.023l-36.611,25.633
	c-1.005,0.704-2.158,1.042-3.299,1.042C327.205,405.57,325.418,404.714,324.298,403.113z M382.744,400.338l-45.375,19.745
	c-0.748,0.325-1.528,0.479-2.295,0.479c-2.224,0-4.341-1.294-5.286-3.463c-1.27-2.917,0.067-6.313,2.984-7.581l45.375-19.745
	c2.914-1.27,6.31,0.066,7.581,2.984C386.998,395.674,385.663,399.068,382.744,400.338z"/>
<rect x="343.416" y="470.681" style="fill:#333333;" width="73.842" height="29.794"/>
<path style="fill:#808080;" d="M428.144,379.04l3.106,8.331c10.236-3.866,19.937-5.338,27.957-5.691
	C449.852,378.378,438.545,378.114,428.144,379.04z"/>
<path style="fill:#C43333;" d="M214.765,459.161l26.678-29.889c1.712-1.917,4.488-2.469,6.801-1.353l8.96,4.323
	c1.169-2.288,2.721-5.255,4.647-8.776H119.763c3.569,12.894,4.514,26.842,4.712,35.696h90.29V459.161z"/>
<g>
	<polygon style="fill:#333333;" points="124.44,470.683 124.44,500.476 177.888,500.476 204.482,470.683 	"/>
	<polygon style="fill:#333333;" points="193.333,500.476 242.283,500.476 207.787,484.282 	"/>
	<path style="fill:#333333;" d="M291.73,376.246H51.032c-7.071,9.818-11.583,21.594-11.925,35.696h63.442
		c-0.978-1.491-2.039-2.837-3.196-3.995c-2.25-2.25-2.25-5.898,0-8.147c2.25-2.249,5.896-2.249,8.146,0
		c3.301,3.301,5.959,7.487,8.112,12.142h152.781C274.372,401.771,282.207,389.372,291.73,376.246z"/>
	<path style="fill:#333333;" d="M299.364,500.476h32.525v-29.794h-8.332C323.364,471.077,299.364,500.476,299.364,500.476z"/>
</g>
<polygon style="fill:#C43333;" points="247.15,440.181 215.792,475.313 269.395,500.476 284.475,500.476 309.293,470.161 "/>
<path d="M228.164,260.989c20.484,0,35.933-8.533,35.933-19.85c0-11.315-15.446-19.85-35.932-19.85
	c-20.487,0-35.935,8.533-35.935,19.85C192.231,252.455,207.678,260.989,228.164,260.989z M211.257,235.574v1.035
	c0,3.181,2.58,5.761,5.761,5.761c3.182,0,5.761-2.58,5.761-5.761v-3.553c1.691-0.156,3.483-0.244,5.388-0.244
	c1.901,0,3.693,0.089,5.383,0.243v3.554c0,3.181,2.579,5.761,5.761,5.761c3.181,0,5.761-2.58,5.761-5.761v-1.035
	c4.923,1.875,7.505,4.242,7.505,5.565c0,2.417-8.554,8.328-24.411,8.328c-15.858,0-24.412-5.912-24.412-8.328
	C203.753,239.816,206.334,237.448,211.257,235.574z"/>
<path d="M350.885,348.696c-2.435-2.045-6.071-1.731-8.116,0.706l-30.27,36.034c-2.046,2.437-1.731,6.071,0.705,8.117
	c1.081,0.907,2.394,1.35,3.703,1.35c1.643,0,3.276-0.699,4.414-2.057l30.27-36.034C353.637,354.375,353.32,350.742,350.885,348.696z
	"/>
<path d="M368.933,378.895c2.607-1.825,3.241-5.416,1.415-8.023c-1.825-2.607-5.416-3.242-8.023-1.416l-36.612,25.633
	c-2.606,1.825-3.241,5.416-1.415,8.023c1.121,1.602,2.907,2.458,4.725,2.458c1.141,0,2.294-0.338,3.299-1.042L368.933,378.895z"/>
<path d="M378.147,389.773l-45.375,19.745c-2.917,1.27-4.253,4.664-2.984,7.581c0.944,2.17,3.062,3.463,5.286,3.463
	c0.767,0,1.547-0.154,2.295-0.479l45.375-19.745c2.917-1.27,4.253-4.664,2.984-7.581
	C384.459,389.838,381.061,388.503,378.147,389.773z"/>
<path d="M418.57,368.561c-0.552-0.578-1.146-1.123-1.769-1.631c18.76-11.493,47.169-20.239,60.011-23.375
	c2.377-0.58,4.127-2.596,4.368-5.03c0.241-2.432-1.081-4.753-3.296-5.786c-33.488-15.621-72.846-3.309-96.348,7.26
	c22.973-25.631,64.226-48.795,64.737-49.079c2.24-1.249,3.387-3.828,2.811-6.327c-0.576-2.499-2.735-4.317-5.297-4.459
	c-25.917-1.436-52.083,6.115-77.769,22.429c-9.304,5.911-18.555,12.987-27.699,21.155c-6.799-1.831-13.879-3.43-21.109-4.732
	c-26.113-4.702-26.143-28.818-26.132-29.816c0.001-0.041-0.031-24.81-0.031-24.81c2.021-3.711,4.044-7.226,6.331-10.443
	c6.842-9.623,12.273-20.603,16.596-32.127c6.259,1.771,12.735,1.546,13.191,1.54c15.577-0.194,22.859-26.282,25.813-41.816
	c0,0,4.996-26.219,0.073-32.916c-0.042-0.056-0.09-0.105-0.131-0.16c9.324-1.39,17.013-2.929,22.926-4.596
	c8.238-2.324,16.659-5.674,16.659-12.908c0-7.234-8.421-10.586-16.659-12.909c-8.275-2.334-20.005-4.416-34.867-6.189
	c-5.914-0.704-12.216-1.346-18.836-1.924c-0.071-9.091-0.509-28.442-2.774-48.339C314.932,22.621,305.862,2.7,291.636,0.671
	c-24.406-3.481-54.953,7.586-63.473,10.941c-8.516-3.356-39.058-14.427-63.473-10.941c-14.226,2.03-23.297,21.951-27.732,60.902
	c-2.264,19.886-2.704,39.239-2.774,48.339c-6.618,0.578-12.923,1.22-18.837,1.924c-14.86,1.773-26.591,3.855-34.867,6.189
	c-8.238,2.324-16.659,5.674-16.659,12.909c0,7.233,8.421,10.585,16.659,12.908c5.914,1.667,13.602,3.206,22.926,4.596
	c-0.041,0.055-0.09,0.103-0.13,0.159c-4.922,6.698,0.073,32.917,0.073,32.917c2.954,15.534,10.237,41.622,25.813,41.816
	c0.455,0.006,7.813-0.056,13.182-1.562c4.325,11.532,9.76,22.521,16.605,32.148c2.286,3.217,4.309,6.733,6.33,10.443
	c0,0-0.031,24.768-0.03,24.81c0.022,1.022,0.215,25.071-26.135,29.816c-33.543,6.041-111.564,27.358-111.564,94.682v92.571
	c0,3.181,2.58,5.761,5.761,5.761h389.702c3.182,0,5.761-2.58,5.761-5.761V401.006c24.531-12.027,47.295-6.845,48.54-6.547
	c2.338,0.576,4.792-0.366,6.143-2.364c1.353-1.996,1.319-4.624-0.085-6.583C469.198,365.705,439.909,365.501,418.57,368.561z
	 M455.018,337.812c-11.245,3.614-25.547,8.92-38.089,15.741l-7.105-11.639C423.832,337.894,439.728,335.463,455.018,337.812z
	 M421.136,292.84c-10.495,6.901-23.649,16.294-35.435,26.884l-11.673-8.442C388.518,302.335,404.32,295.588,421.136,292.84z
	 M341.659,179.362c-4.242,22.308-11.114,32.404-14.638,32.447c-4.975,0.065-7.624-0.272-9.324-0.911
	c5.353-17.259,8.498-35.147,10.323-51.126c2.464-3.162,8.004-6.004,12.761-5.461c1.082,0.124,2.477,0.418,2.986,1.111
	C345.717,158.072,341.659,179.362,341.659,179.362z M148.409,62.874c4.116-36.158,11.951-49.951,17.91-50.799
	c24.8-3.537,59.125,10.856,59.589,11.053c1.502,0.641,3.119,0.584,4.51-0.008l0.005,0.008c0.343-0.146,34.691-14.601,59.589-11.054
	c5.953,0.849,13.782,14.618,17.901,50.708c2.111,18.491,2.595,36.941,2.696,46.208c-24.639-1.782-52.934-2.736-82.443-2.736
	s-57.804,0.954-82.443,2.736C145.822,99.741,146.304,81.35,148.409,62.874z M78.137,130.934c4.96-2.012,16.862-5.362,44.619-8.342
	c28.942-3.105,66.376-4.816,105.408-4.816s76.467,1.71,105.409,4.816c27.756,2.979,39.658,6.33,44.618,8.342
	c-4.96,2.012-16.862,5.361-44.618,8.339c-28.941,3.106-66.378,4.817-105.409,4.817c-39.033,0-76.468-1.71-105.408-4.817
	C94.999,136.295,83.097,132.946,78.137,130.934z M285.798,161.509c0,6.571-5.35,11.918-11.925,11.918
	c-6.568,0-11.913-5.347-11.913-11.918c0-0.51,0.031-1.017,0.097-1.517h23.642C285.763,160.492,285.798,160.998,285.798,161.509z
	 M194.369,161.509c0,6.571-5.347,11.918-11.92,11.918c-6.571,0-11.916-5.347-11.916-11.918c0-0.51,0.031-1.017,0.097-1.517h23.64
	C194.335,160.492,194.369,160.997,194.369,161.509z M129.306,211.809c-3.523-0.044-10.394-10.139-14.637-32.447
	c0,0-4.056-21.291-2.107-23.942c0.507-0.691,1.902-0.985,2.983-1.11c4.76-0.555,10.315,2.316,12.767,5.49
	c1.826,15.969,4.969,33.841,10.316,51.087C136.932,211.531,134.288,211.871,129.306,211.809z M139.116,152.37
	c2.623,0.212,5.306,0.41,8.02,0.603c-0.091,0.406-0.147,0.824-0.147,1.257c0,3.181,2.58,5.761,5.761,5.761h6.315
	c-0.032,0.503-0.054,1.009-0.054,1.517c0,12.925,10.514,23.44,23.437,23.44c12.926,0,23.442-10.515,23.442-23.44
	c0-0.508-0.023-1.014-0.055-1.517h4.339v30.384c-8.671,2.504-15.04,10.477-15.04,19.944c0,3.182,2.579,5.761,5.761,5.761
	c3.181,0,5.761-2.579,5.761-5.761c0-3.197,1.625-6.022,4.094-7.692c0.927,1.943,2.892,3.293,5.186,3.293
	c3.181,0,5.761-2.58,5.761-5.761V159.99h12.938v40.168c0,3.181,2.579,5.761,5.761,5.761c2.291,0,4.253-1.347,5.18-3.285
	c2.471,1.666,4.101,4.485,4.101,7.683c0,3.182,2.579,5.761,5.761,5.761c3.181,0,5.761-2.579,5.761-5.761
	c0-9.465-6.37-17.436-15.042-19.943v-30.385h4.337c-0.032,0.505-0.054,1.009-0.054,1.517c0,12.925,10.514,23.44,23.435,23.44
	c12.928,0,23.447-10.515,23.447-23.44c0-0.508-0.023-1.014-0.055-1.517h6.316c3.181,0,5.761-2.58,5.761-5.761
	c0-0.433-0.056-0.851-0.147-1.257c2.712-0.192,5.396-0.392,8.019-0.603c-2.545,25.987-9.611,67.283-29.224,94.869
	c-3.474,4.885-6.35,10.259-9.13,15.455c-9.417,17.599-18.31,34.223-50.694,34.223c-32.385,0-41.279-16.623-50.695-34.223
	c-2.779-5.196-5.655-10.57-9.129-15.455C148.728,219.655,141.662,178.357,139.116,152.37z M286.412,312.075
	c-1.769,12.549-25.185,25.894-58.248,25.894s-56.48-13.347-58.248-25.895c5.255-8.129,6.965-17.08,6.854-23.074l0.007-4.822
	c9.315,13.221,23.176,24.262,51.384,24.262c0,0,0.001,0,0.002,0h0.001c28.209,0,42.069-11.042,51.385-24.262l0.007,4.822
	C279.447,294.993,281.157,303.946,286.412,312.075z M141.16,330.324c8.377-1.509,14.907-4.637,19.962-8.604
	c8.42,16.223,34.848,27.77,67.042,27.77c32.188,0,58.627-11.542,67.05-27.76c5.056,3.962,11.582,7.087,19.953,8.595
	c4.47,0.805,8.872,1.736,13.188,2.757c-7.339,7.264-14.598,15.24-21.744,23.903c-2.132,2.583-4.2,5.166-6.211,7.74H61.338
	C84.931,343.065,121.441,333.875,141.16,330.324z M112.918,500.476H39.074v-29.794h73.845V500.476z M39.074,459.161v-35.696h68.697
	c3.683,11.54,4.951,25.646,5.197,35.696H39.074z M107.5,399.801c-2.25-2.249-5.896-2.249-8.146,0c-2.25,2.249-2.25,5.897,0,8.147
	c1.157,1.158,2.219,2.504,3.196,3.995H39.107c0.342-14.103,4.854-25.879,11.925-35.696H291.73
	c-9.524,13.127-17.359,25.525-23.337,35.696H115.612C113.459,407.288,110.801,403.102,107.5,399.801z M261.853,423.464
	c-1.925,3.522-3.477,6.488-4.647,8.776l-8.96-4.323c-2.315-1.116-5.089-0.565-6.801,1.353l-26.68,29.891h-90.29
	c-0.198-8.854-1.143-22.801-4.712-35.696H261.853z M124.44,500.476v-29.794h80.042l-26.593,29.794H124.44z M193.333,500.476
	l14.454-16.195l34.496,16.195H193.333z M269.395,500.476l-53.603-25.163l31.359-35.132l62.143,29.979l-24.818,30.315h-15.081
	V500.476z M331.89,500.476h-32.525c0,0,24-29.4,24.193-29.794h8.332v29.794H331.89z M417.254,500.476h-73.844v-29.794h73.844
	V500.476z M417.254,459.161h-73.844v-3.028c18.618-6.574,40.309-16.924,57.01-32.669h16.832v35.696H417.254z M417.254,411.943
	h-5.003c1.658-1.422,3.326-2.765,5.003-3.988V411.943z M396.763,410.848c-29.13,31.327-82.742,42.079-92.942,43.88l-36.22-17.474
	c6.14-11.925,23.111-42.927,48.048-73.119c12.916-15.636,29.23-32.496,48.144-46.036l13.439,9.719
	c-8.034,8.221-14.772,16.923-18.575,25.586c-1.02,2.322-0.401,5.036,1.524,6.688c1.924,1.652,4.702,1.847,6.842,0.489
	c0.279-0.177,13.252-8.304,31.545-14.99l8.506,13.932c-7.607,5.189-13.791,11.056-17.037,17.549
	c-1.037,2.076-0.728,4.57,0.785,6.329s3.934,2.439,6.142,1.728c0.217-0.07,8.365-2.649,19.459-4.55l4.318,11.582
	C412.66,396.508,404.493,402.535,396.763,410.848z M431.251,387.372l-3.106-8.331c10.401-0.926,21.709-0.661,31.064,2.641
	C451.188,382.034,441.487,383.506,431.251,387.372z"/>
<g>
</g>
<g>
</g>
<g>
</g>
<g>
</g>
<g>
</g>
<g>
</g>
<g>
</g>
<g>
</g>
<g>
</g>
<g>
</g>
<g>
</g>
<g>
</g>
<g>
</g>
<g>
</g>
<g>
</g>
</svg>
